TITLE ""
FILE "2Q_k_021-030.mp3" MP3
  TRACK 01 AUDIO
    TITLE "2Q_k_021-030_01"
    INDEX 01 00:00:00
  TRACK 02 AUDIO
    TITLE "2Q_k_021-030_02"
    INDEX 01 00:02:19
  TRACK 03 AUDIO
    TITLE "2Q_k_021-030_03"
    INDEX 01 00:02:64
  TRACK 04 AUDIO
    TITLE "2Q_k_021-030_04"
    INDEX 01 00:04:45
  TRACK 05 AUDIO
    TITLE "2Q_k_021-030_05"
    INDEX 01 00:05:15
  TRACK 06 AUDIO
    TITLE "2Q_k_021-030_06"
    INDEX 01 00:11:30
  TRACK 07 AUDIO
    TITLE "2Q_k_021-030_07"
    INDEX 01 00:13:40
  TRACK 08 AUDIO
    TITLE "2Q_k_021-030_08"
    INDEX 01 00:14:12
  TRACK 09 AUDIO
    TITLE "2Q_k_021-030_09"
    INDEX 01 00:15:63
  TRACK 10 AUDIO
    TITLE "2Q_k_021-030_10"
    INDEX 01 00:16:35
  TRACK 11 AUDIO
    TITLE "2Q_k_021-030_11"
    INDEX 01 00:20:07
  TRACK 12 AUDIO
    TITLE "2Q_k_021-030_12"
    INDEX 01 00:20:52
  TRACK 13 AUDIO
    TITLE "2Q_k_021-030_13"
    INDEX 01 00:24:36
  TRACK 14 AUDIO
    TITLE "2Q_k_021-030_14"
    INDEX 01 00:27:52
  TRACK 15 AUDIO
    TITLE "2Q_k_021-030_15"
    INDEX 01 00:28:24
  TRACK 16 AUDIO
    TITLE "2Q_k_021-030_16"
    INDEX 01 00:29:57
  TRACK 17 AUDIO
    TITLE "2Q_k_021-030_17"
    INDEX 01 00:30:27
  TRACK 18 AUDIO
    TITLE "2Q_k_021-030_18"
    INDEX 01 00:33:41
  TRACK 19 AUDIO
    TITLE "2Q_k_021-030_19"
    INDEX 01 00:34:13
  TRACK 20 AUDIO
    TITLE "2Q_k_021-030_20"
    INDEX 01 00:35:40
  TRACK 21 AUDIO
    TITLE "2Q_k_021-030_21"
    INDEX 01 00:39:12
  TRACK 22 AUDIO
    TITLE "2Q_k_021-030_22"
    INDEX 01 00:39:59
  TRACK 23 AUDIO
    TITLE "2Q_k_021-030_23"
    INDEX 01 00:40:74
  TRACK 24 AUDIO
    TITLE "2Q_k_021-030_24"
    INDEX 01 00:41:46
  TRACK 25 AUDIO
    TITLE "2Q_k_021-030_25"
    INDEX 01 00:42:56
  TRACK 26 AUDIO
    TITLE "2Q_k_021-030_26"
    INDEX 01 00:43:28
  TRACK 27 AUDIO
    TITLE "2Q_k_021-030_27"
    INDEX 01 00:45:27
  TRACK 28 AUDIO
    TITLE "2Q_k_021-030_28"
    INDEX 01 00:46:40
  TRACK 29 AUDIO
    TITLE "2Q_k_021-030_29"
    INDEX 01 00:50:30
  TRACK 30 AUDIO
    TITLE "2Q_k_021-030_30"
    INDEX 01 00:51:02
  TRACK 31 AUDIO
    TITLE "2Q_k_021-030_31"
    INDEX 01 00:52:42
  TRACK 32 AUDIO
    TITLE "2Q_k_021-030_32"
    INDEX 01 00:53:12
  TRACK 33 AUDIO
    TITLE "2Q_k_021-030_33"
    INDEX 01 00:57:16
  TRACK 34 AUDIO
    TITLE "2Q_k_021-030_34"
    INDEX 01 00:57:63
  TRACK 35 AUDIO
    TITLE "2Q_k_021-030_35"
    INDEX 01 01:00:58
  TRACK 36 AUDIO
    TITLE "2Q_k_021-030_36"
    INDEX 01 01:04:53
  TRACK 37 AUDIO
    TITLE "2Q_k_021-030_37"
    INDEX 01 01:05:23
  TRACK 38 AUDIO
    TITLE "2Q_k_021-030_38"
    INDEX 01 01:06:74
  TRACK 39 AUDIO
    TITLE "2Q_k_021-030_39"
    INDEX 01 01:07:52
  TRACK 40 AUDIO
    TITLE "2Q_k_021-030_40"
    INDEX 01 01:09:15
  TRACK 41 AUDIO
    TITLE "2Q_k_021-030_41"
    INDEX 01 01:09:60
  TRACK 42 AUDIO
    TITLE "2Q_k_021-030_42"
    INDEX 01 01:12:18
  TRACK 43 AUDIO
    TITLE "2Q_k_021-030_43"
    INDEX 01 01:18:73
  TRACK 44 AUDIO
    TITLE "2Q_k_021-030_44"
    INDEX 01 01:19:45
  TRACK 45 AUDIO
    TITLE "2Q_k_021-030_45"
    INDEX 01 01:21:21
  TRACK 46 AUDIO
    TITLE "2Q_k_021-030_46"
    INDEX 01 01:21:70
  TRACK 47 AUDIO
    TITLE "2Q_k_021-030_47"
    INDEX 01 01:24:46
  TRACK 48 AUDIO
    TITLE "2Q_k_021-030_48"
    INDEX 01 01:25:16
  TRACK 49 AUDIO
    TITLE "2Q_k_021-030_49"
    INDEX 01 01:27:60
  TRACK 50 AUDIO
    TITLE "2Q_k_021-030_50"
    INDEX 01 01:31:50
  TRACK 51 AUDIO
    TITLE "2Q_k_021-030_51"
    INDEX 01 01:32:24
  TRACK 52 AUDIO
    TITLE "2Q_k_021-030_52"
    INDEX 01 01:33:71
  TRACK 53 AUDIO
    TITLE "2Q_k_021-030_53"
    INDEX 01 01:34:43
  TRACK 54 AUDIO
    TITLE "2Q_k_021-030_54"
    INDEX 01 01:36:24
  TRACK 55 AUDIO
    TITLE "2Q_k_021-030_55"
    INDEX 01 01:36:71
  TRACK 56 AUDIO
    TITLE "2Q_k_021-030_56"
    INDEX 01 01:39:60
  TRACK 57 AUDIO
    TITLE "2Q_k_021-030_57"
    INDEX 01 01:42:70
  TRACK 58 AUDIO
    TITLE "2Q_k_021-030_58"
    INDEX 01 01:43:42
  TRACK 59 AUDIO
    TITLE "2Q_k_021-030_59"
    INDEX 01 01:45:05
  TRACK 60 AUDIO
    TITLE "2Q_k_021-030_60"
    INDEX 01 01:45:60
  TRACK 61 AUDIO
    TITLE "2Q_k_021-030_61"
    INDEX 01 01:47:71
  TRACK 62 AUDIO
    TITLE "2Q_k_021-030_62"
    INDEX 01 01:48:43
  TRACK 63 AUDIO
    TITLE "2Q_k_021-030_63"
    INDEX 01 01:50:40
  TRACK 64 AUDIO
    TITLE "2Q_k_021-030_64"
    INDEX 01 01:53:42
  TRACK 65 AUDIO
    TITLE "2Q_k_021-030_65"
    INDEX 01 01:54:20
  TRACK 66 AUDIO
    TITLE "2Q_k_021-030_66"
    INDEX 01 01:55:45
  TRACK 67 AUDIO
    TITLE "2Q_k_021-030_67"
    INDEX 01 01:56:17
  TRACK 68 AUDIO
    TITLE "2Q_k_021-030_68"
    INDEX 01 01:59:15
  TRACK 69 AUDIO
    TITLE "2Q_k_021-030_69"
    INDEX 01 01:59:58
  TRACK 70 AUDIO
    TITLE "2Q_k_021-030_70"
    INDEX 01 02:02:41
  TRACK 71 AUDIO
    TITLE "2Q_k_021-030_71"
    INDEX 01 02:06:56
